<?xml version="1.0" encoding="UTF-8"?>
<svg width="720" height="400" version="1.1" viewBox="0 0 720 400" xmlns="http://www.w3.org/2000/svg" xmlns:xlink="http://www.w3.org/1999/xlink">
<defs>
<linearGradient id="linearGradient68527">
<stop stop-color="#50742a" offset="0"/>
<stop stop-color="#486926" offset="1"/>
</linearGradient>
<linearGradient id="linearGradient54994" x1="96" x2="112" y1="216" y2="216" gradientTransform="translate(112,-320)" gradientUnits="userSpaceOnUse">
<stop stop-color="#446426" offset="0"/>
<stop stop-color="#557b2d" offset="1"/>
</linearGradient>
<linearGradient id="linearGradient55786" x1="80" x2="96" y1="216" y2="216" gradientTransform="translate(128,-304)" gradientUnits="userSpaceOnUse">
<stop stop-color="#446426" offset="0"/>
<stop stop-color="#557b2d" offset="1"/>
</linearGradient>
<linearGradient id="linearGradient57289" x1="64" x2="80" y1="200" y2="200" gradientUnits="userSpaceOnUse">
<stop stop-color="#557c2c" offset="0"/>
<stop stop-color="#4d7029" offset="1"/>
</linearGradient>
<linearGradient id="linearGradient68529" x1="528" x2="544" y1="168" y2="168" gradientUnits="userSpaceOnUse" xlink:href="#linearGradient68527"/>
<linearGradient id="linearGradient68589" x1="528" x2="544" y1="168" y2="168" gradientTransform="translate(-1.345e-5 16)" gradientUnits="userSpaceOnUse" xlink:href="#linearGradient68527"/>
<linearGradient id="linearGradient68612" x1="528" x2="544" y1="168" y2="168" gradientTransform="translate(-736 384)" gradientUnits="userSpaceOnUse" xlink:href="#linearGradient68527"/>
<linearGradient id="linearGradient68621" x1="576" x2="592" y1="200" y2="200" gradientTransform="translate(-784,384)" gradientUnits="userSpaceOnUse">
<stop stop-color="#4f792a" offset="0"/>
<stop stop-color="#486a25" offset="1"/>
</linearGradient>
<linearGradient id="linearGradient68637" x1="592" x2="608" y1="184" y2="184" gradientUnits="userSpaceOnUse">
<stop stop-color="#486a25" offset="0"/>
<stop stop-color="#547a29" offset="1"/>
</linearGradient>
</defs>
<rect width="720" height="240" fill="#008080" stroke-width="22.97"/>
<g stroke-width=".8839">
<g fill="#363636">
<rect y="384" width="16" height="16"/>
<rect x="16" y="384" width="16" height="16"/>
<rect x="32" y="384" width="16" height="16"/>
<rect x="48" y="384" width="16" height="16"/>
<rect x="64" y="384" width="16" height="16"/>
<rect x="80" y="384" width="16" height="16"/>
</g>
<rect x="96" y="384" width="16" height="16" fill="#6b6b6b"/>
<g fill="#363636">
<rect x="112" y="384" width="16" height="16"/>
<rect x="128" y="384" width="16" height="16"/>
<rect x="144" y="384" width="16" height="16"/>
<rect x="160" y="384" width="16" height="16"/>
<rect x="176" y="384" width="16" height="16"/>
<rect x="192" y="384" width="16" height="16"/>
<rect x="208" y="384" width="16" height="16"/>
</g>
<rect x="224" y="384" width="16" height="16" fill="#6b6b6b"/>
<g fill="#363636">
<rect x="240" y="384" width="16" height="16"/>
<rect x="256" y="384" width="16" height="16"/>
<rect x="272" y="384" width="16" height="16"/>
<rect x="288" y="384" width="16" height="16"/>
<rect x="304" y="384" width="16" height="16"/>
<rect x="320" y="384" width="16" height="16"/>
<rect x="336" y="384" width="16" height="16"/>
<rect x="352" y="384" width="16" height="16"/>
<rect x="368" y="384" width="16" height="16"/>
<rect x="384" y="384" width="16" height="16"/>
<rect x="400" y="384" width="16" height="16"/>
<rect x="416" y="384" width="16" height="16"/>
<rect x="432" y="384" width="16" height="16"/>
</g>
<rect x="448" y="384" width="16" height="16" fill="#6b6b6b"/>
<g fill="#363636">
<rect x="464" y="384" width="16" height="16"/>
<rect x="480" y="384" width="16" height="16"/>
<rect x="496" y="384" width="16" height="16"/>
<rect x="512" y="384" width="16" height="16"/>
<rect x="528" y="384" width="16" height="16"/>
<rect x="544" y="384" width="16" height="16"/>
<rect x="560" y="384" width="16" height="16"/>
<rect x="576" y="384" width="16" height="16"/>
<rect x="592" y="384" width="16" height="16"/>
</g>
<rect x="608" y="384" width="16" height="16" fill="#6b6b6b"/>
<g fill="#363636">
<rect x="624" y="384" width="16" height="16"/>
<rect x="640" y="384" width="16" height="16"/>
<rect x="656" y="384" width="16" height="16"/>
<rect x="672" y="384" width="16" height="16"/>
<rect x="688" y="384" width="16" height="16"/>
<rect x="704" y="384" width="16" height="16"/>
</g>
</g>
<g stroke-width=".8839">
<g fill="#6b6b6b">
<rect y="368" width="16" height="16"/>
<rect x="16" y="368" width="16" height="16"/>
<rect x="32" y="368" width="16" height="16"/>
</g>
<rect x="48" y="368" width="16" height="16" fill="#363636"/>
<rect x="64" y="368" width="16" height="16" fill="#363636"/>
<g fill="#6b6b6b">
<rect x="80" y="368" width="16" height="16"/>
<rect x="96" y="368" width="16" height="16"/>
<rect x="112" y="368" width="16" height="16"/>
<rect x="128" y="368" width="16" height="16"/>
<rect x="144" y="368" width="16" height="16"/>
</g>
<rect x="160" y="368" width="16" height="16" fill="#363636"/>
<g fill="#6b6b6b">
<rect x="176" y="368" width="16" height="16"/>
<rect x="192" y="368" width="16" height="16"/>
<rect x="208" y="368" width="16" height="16"/>
<rect x="224" y="368" width="16" height="16"/>
<rect x="240" y="368" width="16" height="16"/>
<rect x="256" y="368" width="16" height="16"/>
<rect x="272" y="368" width="16" height="16"/>
</g>
<g fill="#363636">
<rect x="288" y="368" width="16" height="16"/>
<rect x="304" y="368" width="16" height="16"/>
<rect x="320" y="368" width="16" height="16"/>
</g>
<rect x="336" y="368" width="16" height="16" fill="#6b6b6b"/>
<rect x="352" y="368" width="16" height="16" fill="#6b6b6b"/>
<rect x="368" y="368" width="16" height="16" fill="#363636"/>
<g fill="#6b6b6b">
<rect x="384" y="368" width="16" height="16"/>
<rect x="400" y="368" width="16" height="16"/>
<rect x="416" y="368" width="16" height="16"/>
<rect x="432" y="368" width="16" height="16"/>
<rect x="448" y="368" width="16" height="16"/>
<rect x="464" y="368" width="16" height="16"/>
<rect x="480" y="368" width="16" height="16"/>
</g>
<g fill="#363636">
<rect x="496" y="368" width="16" height="16"/>
<rect x="512" y="368" width="16" height="16"/>
<rect x="528" y="368" width="16" height="16"/>
<rect x="544" y="368" width="16" height="16"/>
<rect x="560" y="368" width="16" height="16"/>
<rect x="576" y="368" width="16" height="16"/>
<rect x="592" y="368" width="16" height="16"/>
</g>
<rect x="608" y="368" width="16" height="16" fill="#6b6b6b"/>
<rect x="624" y="368" width="16" height="16" fill="#363636"/>
<g fill="#6b6b6b">
<rect x="640" y="368" width="16" height="16"/>
<rect x="656" y="368" width="16" height="16"/>
<rect x="672" y="368" width="16" height="16"/>
<rect x="688" y="368" width="16" height="16"/>
</g>
<rect x="704" y="368" width="16" height="16" fill="#363636"/>
</g>
<g fill="#6b6b6b" stroke-width=".8839">
<rect y="352" width="16" height="16"/>
<rect x="16" y="352" width="16" height="16"/>
<rect x="32" y="352" width="16" height="16"/>
<rect x="48" y="352" width="16" height="16"/>
<rect x="64" y="352" width="16" height="16"/>
<rect x="80" y="352" width="16" height="16"/>
<rect x="96" y="352" width="16" height="16"/>
<rect x="112" y="352" width="16" height="16"/>
<rect x="128" y="352" width="16" height="16"/>
<rect x="144" y="352" width="16" height="16"/>
<rect x="160" y="352" width="16" height="16"/>
<rect x="176" y="352" width="16" height="16"/>
<rect x="192" y="352" width="16" height="16"/>
<rect x="208" y="352" width="16" height="16"/>
<rect x="224" y="352" width="16" height="16"/>
<rect x="240" y="352" width="16" height="16"/>
<rect x="256" y="352" width="16" height="16"/>
<rect x="272" y="352" width="16" height="16"/>
<rect x="288" y="352" width="16" height="16"/>
<rect x="304" y="352" width="16" height="16"/>
<rect x="320" y="352" width="16" height="16"/>
<rect x="336" y="352" width="16" height="16"/>
<rect x="352" y="352" width="16" height="16"/>
<rect x="368" y="352" width="16" height="16"/>
<rect x="384" y="352" width="16" height="16"/>
<rect x="400" y="352" width="16" height="16"/>
<rect x="416" y="352" width="16" height="16"/>
<rect x="432" y="352" width="16" height="16"/>
<rect x="448" y="352" width="16" height="16"/>
<rect x="464" y="352" width="16" height="16"/>
<rect x="480" y="352" width="16" height="16"/>
<rect x="496" y="352" width="16" height="16"/>
<rect x="512" y="352" width="16" height="16"/>
<rect x="528" y="352" width="16" height="16"/>
<rect x="544" y="352" width="16" height="16"/>
<rect x="560" y="352" width="16" height="16"/>
<rect x="576" y="352" width="16" height="16"/>
<rect x="592" y="352" width="16" height="16"/>
<rect x="608" y="352" width="16" height="16"/>
<rect x="624" y="352" width="16" height="16"/>
<rect x="640" y="352" width="16" height="16"/>
<rect x="656" y="352" width="16" height="16"/>
<rect x="672" y="352" width="16" height="16"/>
<rect x="688" y="352" width="16" height="16"/>
<rect x="704" y="352" width="16" height="16"/>
</g>
<g stroke-width=".8839">
<g fill="#583c28">
<rect y="336" width="16" height="16"/>
<rect x="16" y="336" width="16" height="16"/>
<rect x="32" y="336" width="16" height="16"/>
<rect x="48" y="336" width="16" height="16"/>
</g>
<rect x="64" y="336" width="16" height="16" fill="#6b6b6b"/>
<g fill="#583c28">
<rect x="80" y="336" width="16" height="16"/>
<rect x="96" y="336" width="16" height="16"/>
<rect x="112" y="336" width="16" height="16"/>
<rect x="128" y="336" width="16" height="16"/>
<rect x="144" y="336" width="16" height="16"/>
<rect x="160" y="336" width="16" height="16"/>
<rect x="176" y="336" width="16" height="16"/>
<rect x="192" y="336" width="16" height="16"/>
<rect x="208" y="336" width="16" height="16"/>
<rect x="224" y="336" width="16" height="16"/>
<rect x="240" y="336" width="16" height="16"/>
<rect x="256" y="336" width="16" height="16"/>
<rect x="272" y="336" width="16" height="16"/>
<rect x="288" y="336" width="16" height="16"/>
</g>
<rect x="304" y="336" width="16" height="16" fill="#6b6b6b"/>
<rect x="320" y="336" width="16" height="16" fill="#6b6b6b"/>
<g fill="#583c28">
<rect x="336" y="336" width="16" height="16"/>
<rect x="352" y="336" width="16" height="16"/>
<rect x="368" y="336" width="16" height="16"/>
<rect x="384" y="336" width="16" height="16"/>
<rect x="400" y="336" width="16" height="16"/>
<rect x="416" y="336" width="16" height="16"/>
<rect x="432" y="336" width="16" height="16"/>
<rect x="448" y="336" width="16" height="16"/>
<rect x="464" y="336" width="16" height="16"/>
<rect x="480" y="336" width="16" height="16"/>
<rect x="496" y="336" width="16" height="16"/>
<rect x="512" y="336" width="16" height="16"/>
</g>
<g fill="#6b6b6b">
<rect x="528" y="336" width="16" height="16"/>
<rect x="544" y="336" width="16" height="16"/>
<rect x="560" y="336" width="16" height="16"/>
<rect x="576" y="336" width="16" height="16"/>
</g>
<g fill="#583c28">
<rect x="592" y="336" width="16" height="16"/>
<rect x="608" y="336" width="16" height="16"/>
<rect x="624" y="336" width="16" height="16"/>
</g>
<rect x="640" y="336" width="16" height="16" fill="#6b6b6b"/>
<g fill="#583c28">
<rect x="656" y="336" width="16" height="16"/>
<rect x="672" y="336" width="16" height="16"/>
<rect x="688" y="336" width="16" height="16"/>
<rect x="704" y="336" width="16" height="16"/>
</g>
</g>
<g stroke-width=".8839">
<g fill="#583c28">
<rect y="320" width="16" height="16"/>
<rect x="16" y="320" width="16" height="16"/>
<rect x="32" y="320" width="16" height="16"/>
<rect x="48" y="320" width="16" height="16"/>
<rect x="64" y="320" width="16" height="16"/>
<rect x="80" y="320" width="16" height="16"/>
<rect x="96" y="320" width="16" height="16"/>
<rect x="112" y="320" width="16" height="16"/>
<rect x="128" y="320" width="16" height="16"/>
<rect x="144" y="320" width="16" height="16"/>
<rect x="160" y="320" width="16" height="16"/>
<rect x="176" y="320" width="16" height="16"/>
<rect x="192" y="320" width="16" height="16"/>
<rect x="208" y="320" width="16" height="16"/>
<rect x="224" y="320" width="16" height="16"/>
<rect x="240" y="320" width="16" height="16"/>
<rect x="256" y="320" width="16" height="16"/>
<rect x="272" y="320" width="16" height="16"/>
<rect x="288" y="320" width="16" height="16"/>
<rect x="304" y="320" width="16" height="16"/>
<rect x="320" y="320" width="16" height="16"/>
<rect x="336" y="320" width="16" height="16"/>
<rect x="352" y="320" width="16" height="16"/>
<rect x="368" y="320" width="16" height="16"/>
<rect x="384" y="320" width="16" height="16"/>
<rect x="400" y="320" width="16" height="16"/>
<rect x="416" y="320" width="16" height="16"/>
<rect x="432" y="320" width="16" height="16"/>
<rect x="448" y="320" width="16" height="16"/>
<rect x="464" y="320" width="16" height="16"/>
<rect x="480" y="320" width="16" height="16"/>
<rect x="496" y="320" width="16" height="16"/>
<rect x="512" y="320" width="16" height="16"/>
<rect x="528" y="320" width="16" height="16"/>
</g>
<rect x="544" y="320" width="16" height="16" fill="#6b6b6b"/>
<g fill="#583c28">
<rect x="560" y="320" width="16" height="16"/>
<rect x="576" y="320" width="16" height="16"/>
<rect x="592" y="320" width="16" height="16"/>
<rect x="608" y="320" width="16" height="16"/>
<rect x="624" y="320" width="16" height="16"/>
<rect x="640" y="320" width="16" height="16"/>
<rect x="656" y="320" width="16" height="16"/>
<rect x="672" y="320" width="16" height="16"/>
<rect x="688" y="320" width="16" height="16"/>
<rect x="704" y="320" width="16" height="16"/>
</g>
</g>
<g stroke-width=".8839">
<rect y="304" width="16" height="16" fill="#583c28"/>
<rect x="16" y="304" width="16" height="16" fill="#785439"/>
<rect x="32" y="304" width="16" height="16" fill="#785439"/>
<g fill="#583c28">
<rect x="48" y="304" width="16" height="16"/>
<rect x="64" y="304" width="16" height="16"/>
<rect x="80" y="304" width="16" height="16"/>
<rect x="96" y="304" width="16" height="16"/>
<rect x="112" y="304" width="16" height="16"/>
<rect x="128" y="304" width="16" height="16"/>
<rect x="144" y="304" width="16" height="16"/>
<rect x="160" y="304" width="16" height="16"/>
</g>
<g fill="#785439">
<rect x="176" y="304" width="16" height="16"/>
<rect x="192" y="304" width="16" height="16"/>
<rect x="208" y="304" width="16" height="16"/>
<rect x="224" y="304" width="16" height="16"/>
<rect x="240" y="304" width="16" height="16"/>
</g>
<g fill="#583c28">
<rect x="256" y="304" width="16" height="16"/>
<rect x="272" y="304" width="16" height="16"/>
<rect x="288" y="304" width="16" height="16"/>
<rect x="304" y="304" width="16" height="16"/>
<rect x="320" y="304" width="16" height="16"/>
<rect x="336" y="304" width="16" height="16"/>
<rect x="352" y="304" width="16" height="16"/>
</g>
<rect x="368" y="304" width="16" height="16" fill="#785439"/>
<rect x="384" y="304" width="16" height="16" fill="#785439"/>
<g fill="#583c28">
<rect x="400" y="304" width="16" height="16"/>
<rect x="416" y="304" width="16" height="16"/>
<rect x="432" y="304" width="16" height="16"/>
</g>
<rect x="448" y="304" width="16" height="16" fill="#6b6b6b"/>
<g fill="#583c28">
<rect x="464" y="304" width="16" height="16"/>
<rect x="480" y="304" width="16" height="16"/>
<rect x="496" y="304" width="16" height="16"/>
<rect x="512" y="304" width="16" height="16"/>
<rect x="528" y="304" width="16" height="16"/>
<rect x="544" y="304" width="16" height="16"/>
<rect x="560" y="304" width="16" height="16"/>
<rect x="576" y="304" width="16" height="16"/>
<rect x="592" y="304" width="16" height="16"/>
<rect x="608" y="304" width="16" height="16"/>
<rect x="624" y="304" width="16" height="16"/>
<rect x="640" y="304" width="16" height="16"/>
<rect x="656" y="304" width="16" height="16"/>
<rect x="672" y="304" width="16" height="16"/>
<rect x="688" y="304" width="16" height="16"/>
</g>
<rect x="704" y="304" width="16" height="16" fill="#785439"/>
</g>
<g stroke-width=".8839">
<g fill="#785439">
<rect y="288" width="16" height="16"/>
<rect x="16" y="288" width="16" height="16"/>
<rect x="32" y="288" width="16" height="16"/>
<rect x="48" y="288" width="16" height="16"/>
<rect x="64" y="288" width="16" height="16"/>
<rect x="80" y="288" width="16" height="16"/>
<rect x="96" y="288" width="16" height="16"/>
<rect x="112" y="288" width="16" height="16"/>
</g>
<rect x="128" y="288" width="16" height="16" fill="#583c28"/>
<g fill="#785439">
<rect x="144" y="288" width="16" height="16"/>
<rect x="160" y="288" width="16" height="16"/>
<rect x="176" y="288" width="16" height="16"/>
<rect x="192" y="288" width="16" height="16"/>
<rect x="208" y="288" width="16" height="16"/>
<rect x="224" y="288" width="16" height="16"/>
<rect x="240" y="288" width="16" height="16"/>
<rect x="256" y="288" width="16" height="16"/>
<rect x="272" y="288" width="16" height="16"/>
<rect x="288" y="288" width="16" height="16"/>
</g>
<rect x="304" y="288" width="16" height="16" fill="#583c28"/>
<g fill="#785439">
<rect x="320" y="288" width="16" height="16"/>
<rect x="336" y="288" width="16" height="16"/>
<rect x="352" y="288" width="16" height="16"/>
<rect x="368" y="288" width="16" height="16"/>
<rect x="384" y="288" width="16" height="16"/>
<rect x="400" y="288" width="16" height="16"/>
<rect x="416" y="288" width="16" height="16"/>
<rect x="432" y="288" width="16" height="16"/>
<rect x="448" y="288" width="16" height="16"/>
</g>
<rect x="464" y="288" width="16" height="16" fill="#583c28"/>
<rect x="480" y="288" width="16" height="16" fill="#583c28"/>
<g fill="#785439">
<rect x="496" y="288" width="16" height="16"/>
<rect x="512" y="288" width="16" height="16"/>
<rect x="528" y="288" width="16" height="16"/>
<rect x="544" y="288" width="16" height="16"/>
<rect x="560" y="288" width="16" height="16"/>
<rect x="576" y="288" width="16" height="16"/>
</g>
<g fill="#b8845b">
<rect x="592" y="288" width="16" height="16"/>
<rect x="608" y="288" width="16" height="16"/>
<rect x="624" y="288" width="16" height="16"/>
</g>
<g fill="#785439">
<rect x="640" y="288" width="16" height="16"/>
<rect x="656" y="288" width="16" height="16"/>
<rect x="672" y="288" width="16" height="16"/>
<rect x="688" y="288" width="16" height="16"/>
<rect x="704" y="288" width="16" height="16"/>
</g>
</g>
<g stroke-width=".8839">
<g fill="#b8845b">
<rect y="272" width="16" height="16"/>
<rect x="16" y="272" width="16" height="16"/>
<rect x="32" y="272" width="16" height="16"/>
<rect x="48" y="272" width="16" height="16"/>
<rect x="64" y="272" width="16" height="16"/>
</g>
<rect x="80" y="272" width="16" height="16" fill="#56962c"/>
<rect x="96" y="272" width="16" height="16" fill="#56962c"/>
<rect x="112" y="272" width="16" height="16" fill="#785439"/>
<rect x="128" y="272" width="16" height="16" fill="#785439"/>
<g fill="#b8845b">
<rect x="144" y="272" width="16" height="16"/>
<rect x="160" y="272" width="16" height="16"/>
<rect x="176" y="272" width="16" height="16"/>
<rect x="192" y="272" width="16" height="16"/>
<rect x="208" y="272" width="16" height="16"/>
<rect x="224" y="272" width="16" height="16"/>
<rect x="240" y="272" width="16" height="16"/>
<rect x="256" y="272" width="16" height="16"/>
<rect x="272" y="272" width="16" height="16"/>
<rect x="288" y="272" width="16" height="16"/>
<rect x="304" y="272" width="16" height="16"/>
<rect x="320" y="272" width="16" height="16"/>
<rect x="336" y="272" width="16" height="16"/>
<rect x="352" y="272" width="16" height="16"/>
<rect x="368" y="272" width="16" height="16"/>
<rect x="384" y="272" width="16" height="16"/>
<rect x="400" y="272" width="16" height="16"/>
<rect x="416" y="272" width="16" height="16"/>
<rect x="432" y="272" width="16" height="16"/>
<rect x="448" y="272" width="16" height="16"/>
</g>
<rect x="464" y="272" width="16" height="16" fill="#60a036"/>
<g fill="#b8845b">
<rect x="480" y="272" width="16" height="16"/>
<rect x="496" y="272" width="16" height="16"/>
<rect x="512" y="272" width="16" height="16"/>
<rect x="528" y="272" width="16" height="16"/>
<rect x="544" y="272" width="16" height="16"/>
<rect x="560" y="272" width="16" height="16"/>
<rect x="576" y="272" width="16" height="16"/>
</g>
<g fill="#56962c">
<rect x="592" y="272" width="16" height="16"/>
<rect x="608" y="272" width="16" height="16"/>
<rect x="624" y="272" width="16" height="16"/>
</g>
<g fill="#b8845b">
<rect x="640" y="272" width="16" height="16"/>
<rect x="656" y="272" width="16" height="16"/>
<rect x="672" y="272" width="16" height="16"/>
<rect x="688" y="272" width="16" height="16"/>
<rect x="704" y="272" width="16" height="16"/>
</g>
</g>
<g stroke-width=".8839">
<rect y="256" width="16" height="16" fill="#72b248"/>
<rect x="16" y="256" width="16" height="16" fill="#56962c"/>
<rect x="32" y="256" width="16" height="16" fill="#8ec559"/>
<rect x="48" y="256" width="16" height="16" fill="#60a036"/>
<rect x="64" y="256" width="16" height="16" fill="#60a036"/>
<rect x="80" y="256" width="16" height="16" fill="#56962c"/>
<rect x="96" y="256" width="16" height="16" fill="#72b248"/>
<rect x="112" y="256" width="16" height="16" fill="#56962c"/>
<rect x="128" y="256" width="16" height="16" fill="#b8845b"/>
<rect x="144" y="256" width="16" height="16" fill="#56962c"/>
<rect x="160" y="256" width="16" height="16" fill="#56962c"/>
<rect x="176" y="256" width="16" height="16" fill="#60a036"/>
<rect x="192" y="256" width="16" height="16" fill="#60a036"/>
<rect x="208" y="256" width="16" height="16" fill="#56962c"/>
<rect x="224" y="256" width="16" height="16" fill="#56962c"/>
<rect x="240" y="256" width="16" height="16" fill="#72b248"/>
<rect x="256" y="256" width="16" height="16" fill="#56962c"/>
<rect x="272" y="256" width="16" height="16" fill="#56962c"/>
<rect x="288" y="256" width="16" height="16" fill="#60a036"/>
<rect x="304" y="256" width="16" height="16" fill="#56962c"/>
<rect x="320" y="256" width="16" height="16" fill="#72b248"/>
<g fill="#56962c">
<rect x="336" y="256" width="16" height="16"/>
<rect x="352" y="256" width="16" height="16"/>
<rect x="368" y="256" width="16" height="16"/>
</g>
<rect x="384" y="256" width="16" height="16" fill="#72b248"/>
<rect x="400" y="256" width="16" height="16" fill="#56962c"/>
<rect x="416" y="256" width="16" height="16" fill="#60a036"/>
<rect x="432" y="256" width="16" height="16" fill="#72b248"/>
<rect x="448" y="256" width="16" height="16" fill="#72b248"/>
<rect x="464" y="256" width="16" height="16" fill="#56962c"/>
<rect x="480" y="256" width="16" height="16" fill="#60a036"/>
<g fill="#56962c">
<rect x="496" y="256" width="16" height="16"/>
<rect x="512" y="256" width="16" height="16"/>
<rect x="528" y="256" width="16" height="16"/>
<rect x="544" y="256" width="16" height="16"/>
</g>
<rect x="560" y="256" width="16" height="16" fill="#72b248"/>
<rect x="576" y="256" width="16" height="16" fill="#72b248"/>
<rect x="592" y="256" width="16" height="16" fill="#60a036"/>
<rect x="608" y="256" width="16" height="16" fill="#56962c"/>
<rect x="624" y="256" width="16" height="16" fill="#60a036"/>
<rect x="640" y="256" width="16" height="16" fill="#56962c"/>
<rect x="656" y="256" width="16" height="16" fill="#72b248"/>
<g fill="#56962c">
<rect x="672" y="256" width="16" height="16"/>
<rect x="688" y="256" width="16" height="16"/>
<rect x="704" y="256" width="16" height="16"/>
</g>
</g>
<g stroke-width=".8839">
<rect y="240" width="16" height="16" fill="#72b248"/>
<rect x="16" y="240" width="16" height="16" fill="#60a036"/>
<rect x="32" y="240" width="16" height="16" fill="#72b248"/>
<rect x="48" y="240" width="16" height="16" fill="#56962c"/>
<rect x="64" y="240" width="16" height="16" fill="#72b248"/>
<rect x="80" y="240" width="16" height="16" fill="#60a036"/>
<rect x="96" y="240" width="16" height="16" fill="#56962c"/>
<rect x="112" y="240" width="16" height="16" fill="#56962c"/>
<rect x="128" y="240" width="16" height="16" fill="#72b248"/>
<rect x="144" y="240" width="16" height="16" fill="#56962c"/>
<rect x="160" y="240" width="16" height="16" fill="#72b248"/>
<rect x="176" y="240" width="16" height="16" fill="#72b248"/>
<rect x="192" y="240" width="16" height="16" fill="#60a036"/>
<rect x="208" y="240" width="16" height="16" fill="#72b248"/>
<rect x="224" y="240" width="16" height="16" fill="#56962c"/>
<rect x="240" y="240" width="16" height="16" fill="#56962c"/>
<rect x="256" y="240" width="16" height="16" fill="#72b248"/>
<rect x="272" y="240" width="16" height="16" fill="#72b248"/>
<rect x="288" y="240" width="16" height="16" fill="#8ec559"/>
<rect x="304" y="240" width="16" height="16" fill="#60a036"/>
<g fill="#56962c">
<rect x="320" y="240" width="16" height="16"/>
<rect x="336" y="240" width="16" height="16"/>
<rect x="352" y="240" width="16" height="16"/>
</g>
<rect x="368" y="240" width="16" height="16" fill="#72b248"/>
<rect x="384" y="240" width="16" height="16" fill="#72b248"/>
<g fill="#60a036">
<rect x="400" y="240" width="16" height="16"/>
<rect x="416" y="240" width="16" height="16"/>
<rect x="432" y="240" width="16" height="16"/>
</g>
<rect x="448" y="240" width="16" height="16" fill="#72b248"/>
<rect x="464" y="240" width="16" height="16" fill="#8ec559"/>
<rect x="480" y="240" width="16" height="16" fill="#72b248"/>
<rect x="496" y="240" width="16" height="16" fill="#72b248"/>
<g fill="#56962c">
<rect x="512" y="240" width="16" height="16"/>
<rect x="528" y="240" width="16" height="16"/>
<rect x="544" y="240" width="16" height="16"/>
</g>
<rect x="560" y="240" width="16" height="16" fill="#60a036"/>
<rect x="576" y="240" width="16" height="16" fill="#72b248"/>
<rect x="592" y="240" width="16" height="16" fill="#56962c"/>
<rect x="608" y="240" width="16" height="16" fill="#8ec559"/>
<rect x="624" y="240" width="16" height="16" fill="#60a036"/>
<rect x="640" y="240" width="16" height="16" fill="#56962c"/>
<rect x="656" y="240" width="16" height="16" fill="#72b248"/>
<rect x="672" y="240" width="16" height="16" fill="#56962c"/>
<rect x="688" y="240" width="16" height="16" fill="#72b248"/>
<rect x="704" y="240" width="16" height="16" fill="#56962c"/>
</g>
<g stroke-width=".8839">
<rect x="592" y="224" width="16" height="16" fill="#6e3812"/>
<g fill="#547a29">
<rect x="576" y="208" width="16" height="16"/>
<rect x="592" y="208" width="16" height="16"/>
<rect x="608" y="208" width="16" height="16"/>
</g>
<rect transform="rotate(-90)" x="-208" y="576" width="16" height="16" fill="url(#linearGradient68621)"/>
<rect x="592" y="192" width="16" height="16" fill="#517628"/>
<rect x="608" y="192" width="16" height="16" fill="#547a29"/>
<rect x="592" y="176" width="16" height="16" fill="url(#linearGradient68637)"/>
</g>
<g stroke-width=".8839">
<g fill="#6e3812">
<rect x="560" y="224" width="16" height="16"/>
<rect x="560" y="208" width="16" height="16"/>
<rect x="560" y="192" width="16" height="16"/>
</g>
<g fill="#59822f">
<rect x="544" y="176" width="16" height="16"/>
<rect x="560" y="176" width="16" height="16"/>
<rect x="576" y="176" width="16" height="16"/>
<rect x="544" y="160" width="16" height="16"/>
<rect x="560" y="160" width="16" height="16"/>
<rect x="576" y="160" width="16" height="16"/>
<rect x="560" y="144" width="16" height="16"/>
</g>
</g>
<g stroke-width=".8839">
<rect x="512" y="224" width="16" height="16" fill="#6e3812"/>
<rect x="512" y="208" width="16" height="16" fill="#6e3812"/>
<g fill="#50742a">
<rect x="480" y="192" width="16" height="16"/>
<rect x="496" y="192" width="16" height="16"/>
<rect x="512" y="192" width="16" height="16"/>
</g>
<rect x="528" y="192" width="16" height="16" fill="#4d7029"/>
<rect transform="rotate(-90)" x="-208" y="544" width="16" height="16" fill="url(#linearGradient68612)"/>
<g fill="#50742a">
<rect x="480" y="176" width="16" height="16"/>
<rect x="496" y="176" width="16" height="16"/>
<rect x="512" y="176" width="16" height="16"/>
</g>
<rect x="528" y="176" width="16" height="16" fill="url(#linearGradient68589)"/>
<rect x="496" y="160" width="16" height="16" fill="#50742a"/>
<rect x="512" y="160" width="16" height="16" fill="#50742a"/>
<rect x="528" y="160" width="16" height="16" fill="url(#linearGradient68529)"/>
<rect x="512" y="144" width="16" height="16" fill="#50742a"/>
</g>
<g stroke-width=".8839">
<rect x="112" y="224" width="16" height="16" fill="#6e3812"/>
<rect x="112" y="208" width="16" height="16" fill="#6e3812"/>
<g fill="#59822f">
<rect x="80" y="192" width="16" height="16"/>
<rect x="96" y="192" width="16" height="16"/>
<rect x="112" y="192" width="16" height="16"/>
<rect x="128" y="192" width="16" height="16"/>
<rect x="144" y="192" width="16" height="16"/>
<rect x="80" y="176" width="16" height="16"/>
<rect x="96" y="176" width="16" height="16"/>
<rect x="112" y="176" width="16" height="16"/>
<rect x="128" y="176" width="16" height="16"/>
<rect x="144" y="176" width="16" height="16"/>
<rect x="96" y="160" width="16" height="16"/>
<rect x="112" y="160" width="16" height="16"/>
<rect x="128" y="160" width="16" height="16"/>
</g>
</g>
<g stroke-width=".8839">
<rect x="80" y="224" width="16" height="16" fill="#6e3812"/>
<rect x="64" y="208" width="16" height="16" fill="#51742a"/>
<rect transform="rotate(90)" x="208" y="-96" width="16" height="16" fill="url(#linearGradient55786)"/>
</g>
<rect transform="rotate(90)" x="208" y="-112" width="16" height="16" fill="url(#linearGradient54994)" stroke-width=".884"/>
<rect x="64" y="192" width="16" height="16" fill="url(#linearGradient57289)" stroke-width=".8839"/>
<g stroke-width=".8839">
<rect x="704" y="32" width="16" height="16" fill="#ccc"/>
<rect transform="rotate(90)" x="64" y="-704" width="16" height="16" fill="#bfbfbf"/>
<rect transform="rotate(90)" x="64" y="-720" width="16" height="16" fill="#bfbfbf"/>
<rect x="688" y="48" width="16" height="16" fill="#c7c7c7"/>
<rect x="704" y="48" width="16" height="16" fill="#c7c7c7"/>
</g>
<g stroke-width=".8839">
<rect x="528" y="16" width="16" height="16" fill="#ccc"/>
<g fill="#bfbfbf">
<rect transform="rotate(90)" x="48" y="-512" width="16" height="16"/>
<rect transform="rotate(90)" x="48" y="-528" width="16" height="16"/>
<rect transform="rotate(90)" x="48" y="-544" width="16" height="16"/>
<rect transform="rotate(90)" x="48" y="-560" width="16" height="16"/>
<rect transform="rotate(90)" x="48" y="-576" width="16" height="16"/>
<rect transform="rotate(90)" x="48" y="-592" width="16" height="16"/>
<rect transform="rotate(90)" x="48" y="-608" width="16" height="16"/>
</g>
<g fill="#c7c7c7">
<rect x="512" y="32" width="16" height="16"/>
<rect x="528" y="32" width="16" height="16"/>
<rect x="544" y="32" width="16" height="16"/>
<rect x="560" y="32" width="16" height="16"/>
<rect x="576" y="32" width="16" height="16"/>
</g>
</g>
<g stroke-width=".8839">
<g fill="#bfbfbf">
<rect x="256" y="96" width="16" height="16"/>
<rect x="272" y="96" width="16" height="16"/>
<rect x="288" y="96" width="16" height="16"/>
<rect x="304" y="96" width="16" height="16"/>
<rect x="320" y="96" width="16" height="16"/>
</g>
<g fill="#c7c7c7">
<rect transform="rotate(90)" x="80" y="-272" width="16" height="16"/>
<rect transform="rotate(90)" x="80" y="-288" width="16" height="16"/>
<rect transform="rotate(90)" x="80" y="-304" width="16" height="16"/>
<rect transform="rotate(90)" x="80" y="-320" width="16" height="16"/>
<rect x="320" y="80" width="16" height="16"/>
</g>
<rect x="272" y="64" width="16" height="16" fill="#ccc"/>
<rect x="288" y="64" width="16" height="16" fill="#ccc"/>
</g>
<g stroke-width=".8839">
<g fill="#bfbfbf">
<rect transform="rotate(90)" x="64" y="-96" width="16" height="16"/>
<rect transform="rotate(90)" x="64" y="-112" width="16" height="16"/>
<rect transform="rotate(90)" x="64" y="-128" width="16" height="16"/>
</g>
<g fill="#c7c7c7">
<rect x="80" y="48" width="16" height="16"/>
<rect x="96" y="48" width="16" height="16"/>
<rect x="112" y="48" width="16" height="16"/>
</g>
<rect x="128" y="48" width="16" height="16" fill="#bfbfbf"/>
<rect x="144" y="48" width="16" height="16" fill="#bfbfbf"/>
<g fill="#ccc">
<rect x="96" y="32" width="16" height="16"/>
<rect x="112" y="32" width="16" height="16"/>
<rect x="128" y="32" width="16" height="16"/>
</g>
</g>
<g fill="#ccc" stroke-width=".8839">
<rect transform="rotate(90)" x="112" y="-16" width="16" height="16"/>
<rect y="96" width="16" height="16"/>
</g>
</svg>
