<?xml version="1.0" encoding="UTF-8"?>
<svg width="64" height="64" version="1.1" viewBox="0 0 64 64" xmlns="http://www.w3.org/2000/svg">
  <rect x="32" y="56" width="4" height="4" fill="#785439"/>
  <rect x="28" y="56" width="4" height="4" fill="#956b49"/>
  <rect x="32" y="52" width="4" height="4" fill="#6b6b6b"/>
  <rect x="28" y="52" width="4" height="4" fill="#b8845b"/>
  <rect x="32" y="44" width="4" height="4" fill="#583c28"/>
  <rect x="28" y="44" width="4" height="4" fill="#956b49"/>
  <rect x="32" y="40" width="4" height="4" fill="#b8845b"/>
  <rect x="28" y="40" width="4" height="4" fill="#785439"/>
  <rect x="32" y="36" width="4" height="4" fill="#956b49"/>
  <rect x="28" y="36" width="4" height="4" fill="#785439"/>
  <rect x="40" y="32" width="4" height="4" fill="#785439"/>
  <rect x="36" y="32" width="4" height="4" fill="#785439"/>
  <rect x="32" y="32" width="4" height="4" fill="#583c28"/>
  <rect x="28" y="32" width="4" height="4" fill="#b8845b"/>
  <rect x="48" y="28" width="4" height="4" fill="#6b6b6b"/>
  <rect x="44" y="28" width="4" height="4" fill="#785439"/>
  <rect x="40" y="28" width="4" height="4" fill="#956b49"/>
  <rect x="36" y="28" width="4" height="4" fill="#b8845b"/>
  <rect x="32" y="28" width="4" height="4" fill="#956b49"/>
  <rect x="28" y="28" width="4" height="4" fill="#785439"/>
  <rect x="48" y="24" width="4" height="4" fill="#785439"/>
  <rect x="44" y="24" width="4" height="4" fill="#956b49"/>
  <rect x="40" y="24" width="4" height="4" fill="#583c28"/>
  <rect x="48" y="20" width="4" height="4" fill="#785439"/>
  <rect x="44" y="20" width="4" height="4" fill="#583c28"/>
  <rect x="48" y="16" width="4" height="4" fill="#785439"/>
  <rect x="44" y="16" width="4" height="4" fill="#956b49"/>
  <rect x="20" y="16" width="4" height="4" fill="#b8845b"/>
  <rect x="16" y="16" width="4" height="4" fill="#6b6b6b"/>
  <rect x="48" y="12" width="4" height="4" fill="#785439"/>
  <rect x="44" y="12" width="4" height="4" fill="#b8845b"/>
  <rect x="40" y="12" width="4" height="4" fill="#956b49"/>
  <rect x="24" y="12" width="4" height="4" fill="#956b49"/>
  <rect x="20" y="12" width="4" height="4" fill="#583c28"/>
  <rect x="16" y="12" width="4" height="4" fill="#56962c"/>
  <rect x="44" y="8" width="4" height="4" fill="#56962c"/>
  <rect x="40" y="8" width="4" height="4" fill="#60a036"/>
  <rect x="36" y="8" width="4" height="4" fill="#583c28"/>
  <rect x="32" y="8" width="4" height="4" fill="#956b49"/>
  <rect x="28" y="8" width="4" height="4" fill="#956b49"/>
  <rect x="24" y="8" width="4" height="4" fill="#72b248"/>
  <rect x="20" y="8" width="4" height="4" fill="#60a036"/>
  <rect x="40" y="4" width="4" height="4" fill="#72b248"/>
  <rect x="36" y="4" width="4" height="4" fill="#56962c"/>
  <rect x="32" y="4" width="4" height="4" fill="#56962c"/>
  <rect x="28" y="4" width="4" height="4" fill="#60a036"/>
  <rect x="24" y="4" width="4" height="4" fill="#56962c"/>
</svg>
