<?xml version="1.0" encoding="UTF-8"?>
<svg width="256" height="256" version="1.1" viewBox="0 0 256 256" xmlns="http://www.w3.org/2000/svg">
<g transform="matrix(.9062 0 0 .9062 12 12)" stroke-width="1.229">
<path d="m224 0v32h32a32 32 0 0 0-0.1152-1.752c-0.1379-1.787-0.5328-4.821-1.615-8.418a32 32 0 0 0-30.27-21.83zm30.56 22.7a32 32 0 0 1 1.021 4.404 32 32 0 0 0-1.021-4.404zm1.023 4.418a32 32 0 0 1 0.2891 2.988 32 32 0 0 0-0.2891-2.988zm-255.6 4.885v32h32v-32zm128 32v32h32v-32zm96 0v32h32v-32zm0 32h-32v32h32z" fill="#9bca6b"/>
<path d="m32 0v64h32v-64zm64 0v32h32v-32zm32 32v32h32v-32zm64-32v32h32v-32zm32 32v32h32v-32zm0 32h-32v32h32z" fill="#72b248"/>
<path d="m32 0a32 32 0 0 0-1.752 0.1152c-1.787 0.1379-4.821 0.5328-8.418 1.615a32 32 0 0 0-21.83 30.27h32zm128 0v32h32v-32zm32 32v32h32v-32zm-161.9-31.88a32 32 0 0 0-2.988 0.2891 32 32 0 0 1 2.988-0.2891zm-3.002 0.291a32 32 0 0 0-4.404 1.021 32 32 0 0 1 4.404-1.021zm36.9 31.58v32h-32v32h64v-64z" fill="#60a036"/>
<path d="m64 0v32h32v-32zm32 32v32h32v-32zm32 0h32v-32h-32zm32 0v32h32v-32z" fill="#56962c"/>
<path d="m96 64v32h32v-32zm0 32h-32v32h32zm-32 32h-32v32h32zm-32 0v-32h-32v32zm160 32v64h64v-32h-32v-32zm-128 32v32h32v-32zm64 0v32h32v-32z" fill="#583c28"/>
<path d="m160 96v32h32v-32zm-128 96v32h32v-32zm64 0v32h32v-32z" fill="#6b6b6b"/>
<path d="m0 64v32h32v-32zm128 64v32h32v32h32v-64h-32zm0 32h-32v32h32zm96-32v32h32v-32zm-224 64v32h32v-32zm32 32v32h32v-32z" fill="#b8845b"/>
<path d="m160 64v32h32v-32zm0 32h-32v32h32zm64 0v32h32v-32zm0 32h-32v32h32zm-224 0v32h32v-32zm64 96v32h32v-32zm64 0v32h32v-32zm96 0v32a32 32 0 0 0 1.752-0.1152c1.787-0.1379 4.821-0.5328 8.418-1.615a32 32 0 0 0 21.83-30.27zm9.303 30.56a32 32 0 0 1-4.404 1.021 32 32 0 0 0 4.404-1.021zm-4.418 1.023a32 32 0 0 1-2.988 0.2891 32 32 0 0 0 2.988-0.2891z" fill="#b8845b"/>
<path d="m32 96v32h32v-32zm32 32v32h-64v32h96v-32h32v-64h-32v32zm64 32v32h32v-32zm32 32v64h64v-32h-32v-32zm64-32v32h32v-32zm-224 64a32 32 0 0 0 0.1152 1.752c0.1379 1.787 0.5328 4.821 1.615 8.418a32 32 0 0 0 30.27 21.83v-32zm96 0v32h32v-32zm-95.88 1.896a32 32 0 0 0 0.2891 2.988 32 32 0 0 1-0.2891-2.988zm0.291 3.002a32 32 0 0 0 1.021 4.404 32 32 0 0 1-1.021-4.404z" fill="#785439"/>
</g>
</svg>
