<?xml version="1.0" encoding="UTF-8"?>
<svg width="256" height="256" version="1.1" viewBox="0 0 256 256" xmlns="http://www.w3.org/2000/svg">
<path x="10" y="10" width="236" height="236" d="m58 10h140a48 48 45 0 1 48 48v140a48 48 135 0 1-48 48h-140a48 48 45 0 1-48-48v-140a48 48 135 0 1 48-48z" fill="#f0313b" stroke-width="1.236"/>
<g transform="matrix(.7917 0 0 .7917 121.7 94.82)" fill="#fff">
<path d="m-87.94 41.74q0-38.36 0.012-76.71c0.012-8.968 0.5049-9.468 9.269-9.478q66.29-0.06072 132.6-0.03648c6.345 0.0012 7.277 1.002 7.382 7.545 0.072 4.649-0.048 9.303 0.1224 13.95a20.87 21.12 0 0 0 20.62 21.56c5.102 0.3571 10.25 0.1263 15.37 0.2368 5.534 0.1214 6.312 0.9498 6.533 6.665 0.036 0.8924 0.036 1.788 0.036 2.682q0.0125 54.99 0.0125 110c-5e-3 10.01-0.1536 10.12-10.13 10.16q-11.66 0.0365-23.33-0.0365c-9.115-0.0607-9.331-0.2817-9.336-9.289q-0.024-52.56-0.0106-105.2c0-1.252 0.036-2.505-0.01-3.756a10.25 10.37 0 0 0-10.92-11.12c-3.355-0.09715-6.72-0.09715-10.07 0.03648a10.31 10.43 0 0 0-10.72 10.83c-0.108 1.962-0.06 3.934-0.072 5.903q-0.024 28.71-0.036 57.42c-1e-3 2.146 0.06 4.297-0.072 6.437-0.2304 3.912-1.363 5.339-5.083 5.388q-16.17 0.2089-32.34-0.0245c-3.745-0.0607-4.872-1.517-5.136-5.383-0.108-1.603-0.06-3.218-0.06-4.827q-0.036-30.58-0.072-61.16a40.4 40.89 0 0 0-0.1548-5.358 10.01 10.13 0 0 0-9.552-9.148 102.8 104.1 0 0 0-12.19 0.0082 9.72 9.838 0 0 0-9.715 10c-0.18 3.927-0.108 7.87-0.108 11.8q-0.036 48.82-0.072 97.65c-0.0011 1.431 0.048 2.867-0.048 4.291-0.2772 3.878-1.405 5.339-5.15 5.388q-16.17 0.2126-32.34-0.0607c-3.815-0.0607-4.872-1.424-5.174-5.349-0.1368-1.779-0.072-3.575-0.072-5.363q-0.0053-37.82-0.0024-75.64z" stroke-linecap="round" stroke-width="3.097" vector-effect="non-scaling-stroke"/>
</g>
</svg>
