<?xml version="1.0" encoding="UTF-8"?>
<svg width="256" height="256" version="1.1" viewBox="0 0 23.27 23.27" xmlns="http://www.w3.org/2000/svg">
<g transform="matrix(.9062 0 0 .9062 1.091 1.091)" stroke-width=".3007">
<path d="m7.273 0v1.455h-1.455v1.455h-1.455v17.45h1.455v1.455h1.455v1.455h8.727v-1.455h1.455v-1.455h1.455v-17.45h-1.455v-1.455h-1.455v-1.455z" fill="#666"/>
<path d="m8.727 1.455v1.455h-1.455v1.455h-1.455v14.55h1.455v1.455h1.455v1.455h5.818v-1.455h1.455v-1.455h1.455v-14.55h-1.455v-1.455h-1.455v-1.455z" fill="#333"/>
<path d="m8.727 1.455v1.455h-1.455v1.455h-1.455v14.55h1.455v1.455h1.455v1.455h5.818v-16h-1.455v-1.455h-1.455v-1.455h-1.455v-1.455z" fill="#896700"/>
<path d="m5.818 5.818v4.364h1.455v1.455h1.455v-5.818h-1.455zm4.364 1.455v5.818h1.455v1.455h1.455v-5.818h-1.455v-1.455zm-4.364 5.818v4.364h1.455v1.455h1.455v-4.364h-1.455v-1.455zm4.364 2.909v4.364h1.455v-1.455h1.455v-1.455h-1.455v-1.455z" fill="#a37b00"/>
</g>
</svg>
