<?xml version="1.0" encoding="UTF-8"?>
<svg width="64" height="64" version="1.1" viewBox="0 0 64 64" xmlns="http://www.w3.org/2000/svg">
  <g transform="rotate(180,32,32)" stroke-width=".60602">
    <rect x="52" y="56" width="4" height="4" fill="#9bca6b"/>
    <rect x="48" y="56" width="4" height="4" fill="#72b248"/>
    <rect x="44" y="56" width="4" height="4" fill="#72b248"/>
    <rect x="40" y="56" width="4" height="4" fill="#60a036"/>
    <rect x="36" y="56" width="4" height="4" fill="#56962c"/>
    <rect x="32" y="56" width="4" height="4" fill="#56962c"/>
    <rect x="28" y="56" width="4" height="4" fill="#60a036"/>
    <rect x="24" y="56" width="4" height="4" fill="#56962c"/>
    <rect x="20" y="56" width="4" height="4" fill="#60a036"/>
    <rect x="16" y="56" width="4" height="4" fill="#60a036"/>
    <rect x="12" y="56" width="4" height="4" fill="#72b248"/>
    <rect x="8" y="56" width="4" height="4" fill="#9bca6b"/>
    <rect x="32" y="48" width="4" height="4" fill="#60a036"/>
    <rect x="28" y="48" width="4" height="4" fill="#72b248"/>
    <rect x="36" y="44" width="4" height="4" fill="#785439"/>
    <rect x="32" y="44" width="4" height="4" fill="#b8845b"/>
    <rect x="28" y="44" width="4" height="4" fill="#60a036"/>
    <rect x="24" y="44" width="4" height="4" fill="#56962c"/>
    <rect x="40" y="40" width="4" height="4" fill="#b8845b"/>
    <rect x="36" y="40" width="4" height="4" fill="#b8845b"/>
    <rect x="32" y="40" width="4" height="4" fill="#785439"/>
    <rect x="28" y="40" width="4" height="4" fill="#583c28"/>
    <rect x="24" y="40" width="4" height="4" fill="#785439"/>
    <rect x="20" y="40" width="4" height="4" fill="#72b248"/>
    <rect x="44" y="36" width="4" height="4" fill="#b8845b"/>
    <rect x="40" y="36" width="4" height="4" fill="#956b49"/>
    <rect x="36" y="36" width="4" height="4" display="none" fill="#583c28"/>
    <rect x="32" y="36" width="4" height="4" fill="#956b49"/>
    <rect x="28" y="36" width="4" height="4" fill="#785439"/>
    <rect x="24" y="36" width="4" height="4" display="none" fill="#b8845b"/>
    <rect x="20" y="36" width="4" height="4" fill="#785439"/>
    <rect x="16" y="36" width="4" height="4" fill="#b8845b"/>
    <rect x="44" y="32" width="4" height="4" fill="#b8845b"/>
    <rect x="40" y="32" width="4" height="4" fill="#785439"/>
    <rect x="32" y="32" width="4" height="4" fill="#785439"/>
    <rect x="28" y="32" width="4" height="4" fill="#b8845b"/>
    <rect x="20" y="32" width="4" height="4" fill="#583c28"/>
    <rect x="16" y="32" width="4" height="4" fill="#956b49"/>
    <g fill="#b8845b">
      <rect x="32" y="28" width="4" height="4"/>
      <rect x="28" y="28" width="4" height="4"/>
    </g>
    <rect x="32" y="24" width="4" height="4" fill="#583c28"/>
    <rect x="28" y="24" width="4" height="4" fill="#956b49"/>
    <rect x="32" y="20" width="4" height="4" fill="#956b49"/>
    <rect x="28" y="20" width="4" height="4" fill="#b8845b"/>
    <rect x="28" y="16" width="4" height="4" fill="#785439"/>
    <rect x="32" y="16" width="4" height="4" fill="#6b6b6b"/>
    <rect x="32" y="12" width="4" height="4" fill="#956b49"/>
    <rect x="28" y="12" width="4" height="4" fill="#583c28"/>
    <rect x="32" y="8" width="4" height="4" fill="#583c28"/>
    <rect x="28" y="8" width="4" height="4" fill="#6b6b6b"/>
    <rect x="32" y="4" width="4" height="4" fill="#6b6b6b"/>
    <rect x="28" y="4" width="4" height="4" fill="#785439"/>
  </g>
</svg>
