<?xml version="1.0" encoding="UTF-8" standalone="no"?>
<svg
   width="256"
   height="256"
   version="1"
   id="svg130"
   sodipodi:docname="minecraft.svg"
   inkscape:version="1.2.2 (b0a8486541, 2022-12-01)"
   xmlns:inkscape="http://www.inkscape.org/namespaces/inkscape"
   xmlns:sodipodi="http://sodipodi.sourceforge.net/DTD/sodipodi-0.dtd"
   xmlns="http://www.w3.org/2000/svg"
   xmlns:svg="http://www.w3.org/2000/svg">
  <defs
     id="defs134" />
  <sodipodi:namedview
     id="namedview132"
     pagecolor="#505050"
     bordercolor="#ffffff"
     borderopacity="1"
     inkscape:showpageshadow="0"
     inkscape:pageopacity="0"
     inkscape:pagecheckerboard="1"
     inkscape:deskcolor="#505050"
     showgrid="false"
     inkscape:zoom="2.8367135"
     inkscape:cx="89.011455"
     inkscape:cy="139.59816"
     inkscape:window-width="2560"
     inkscape:window-height="1368"
     inkscape:window-x="0"
     inkscape:window-y="0"
     inkscape:window-maximized="1"
     inkscape:current-layer="svg130" />
  <rect
     style="fill:#9bca6b;stroke-width:16"
     width="32"
     height="32"
     x="0"
     y="32"
     ry="0"
     id="rect2" />
  <rect
     style="fill:#583c28;stroke-width:16"
     width="32"
     height="32"
     x="32"
     y="128"
     ry="0"
     id="rect4" />
  <rect
     style="fill:#b8845b;stroke-width:16"
     width="32"
     height="32"
     x="-160"
     y="128"
     ry="0"
     transform="scale(-1,1)"
     id="rect6" />
  <rect
     style="fill:#785439;stroke-width:16"
     width="32"
     height="32"
     x="-128"
     y="128"
     ry="0"
     transform="scale(-1,1)"
     id="rect8" />
  <rect
     style="fill:#956b49;stroke-width:16"
     width="32"
     height="32"
     x="-160"
     y="96"
     ry="0"
     transform="scale(-1,1)"
     id="rect10" />
  <rect
     style="fill:#785439;stroke-width:16"
     width="32"
     height="32"
     x="96"
     y="96"
     ry="0"
     id="rect12" />
  <rect
     style="fill:#583c28;stroke-width:16"
     width="32"
     height="32"
     x="-128"
     y="64"
     ry="0"
     transform="scale(-1,1)"
     id="rect14" />
  <rect
     style="fill:#9bca6b;stroke-width:16"
     width="32"
     height="32"
     x="128"
     y="64"
     ry="0"
     id="rect16" />
  <rect
     style="fill:#72b248;stroke-width:16"
     width="32"
     height="32"
     x="32"
     y="32"
     ry="0"
     id="rect18" />
  <rect
     style="fill:#b8845b;stroke-width:16"
     width="32"
     height="32"
     x="-192"
     y="160"
     ry="0"
     transform="scale(-1,1)"
     id="rect20" />
  <rect
     style="fill:#785439;stroke-width:16"
     width="32"
     height="32"
     x="64"
     y="160"
     ry="0"
     id="rect22" />
  <rect
     style="fill:#b8845b;stroke-width:16"
     width="32"
     height="32"
     x="-192"
     y="128"
     ry="0"
     transform="scale(-1,1)"
     id="rect24" />
  <rect
     style="fill:#785439;stroke-width:16"
     width="32"
     height="32"
     x="64"
     y="128"
     ry="0"
     id="rect26" />
  <rect
     style="fill:#583c28;stroke-width:16"
     width="32"
     height="32"
     x="64"
     y="96"
     ry="0"
     id="rect28" />
  <rect
     style="fill:#6b6b6b;stroke-width:16"
     width="32"
     height="32"
     x="-192"
     y="96"
     ry="0"
     transform="scale(-1,1)"
     id="rect30" />
  <rect
     style="fill:#956b49;stroke-width:16"
     width="32"
     height="32"
     x="160"
     y="64"
     ry="0"
     id="rect32" />
  <rect
     style="fill:#60a036;stroke-width:16"
     width="32"
     height="32"
     x="-96"
     y="32"
     ry="0"
     transform="scale(-1,1)"
     id="rect34" />
  <rect
     style="fill:#60a036;stroke-width:16"
     width="32"
     height="32"
     x="64"
     y="64"
     ry="0"
     id="rect36" />
  <rect
     style="fill:#b8845b;stroke-width:16"
     width="32"
     height="32"
     x="96"
     y="-192"
     ry="0"
     transform="scale(1,-1)"
     id="rect38" />
  <rect
     style="fill:#785439;stroke-width:16"
     width="32"
     height="32"
     x="128"
     y="-192"
     ry="0"
     transform="scale(1,-1)"
     id="rect40" />
  <rect
     style="fill:#785439;stroke-width:16"
     width="32"
     height="32"
     x="-64"
     y="-192"
     ry="0"
     transform="scale(-1)"
     id="rect42" />
  <rect
     style="fill:#956b49;stroke-width:16"
     width="32"
     height="32"
     x="-224"
     y="128"
     ry="0"
     transform="scale(-1,1)"
     id="rect44" />
  <rect
     style="fill:#9bca6b;stroke-width:16"
     width="32"
     height="32"
     x="192"
     y="96"
     ry="0"
     id="rect46" />
  <rect
     style="fill:#72b248;stroke-width:16"
     width="32"
     height="32"
     x="128"
     y="32"
     ry="0"
     id="rect48" />
  <rect
     style="fill:#56962c;stroke-width:16"
     width="32"
     height="32"
     x="160"
     y="32"
     ry="0"
     id="rect50" />
  <rect
     style="fill:#60a036;stroke-width:16"
     width="32"
     height="32"
     x="192"
     y="32"
     ry="0"
     id="rect52" />
  <rect
     style="fill:#72b248;stroke-width:16"
     width="32"
     height="32"
     x="-224"
     y="64"
     ry="0"
     transform="scale(-1,1)"
     id="rect54" />
  <rect
     style="fill:#785439;stroke-width:16"
     width="32"
     height="32"
     x="-64"
     y="96"
     ry="0"
     transform="scale(-1,1)"
     id="rect56" />
  <rect
     style="fill:#56962c;stroke-width:16"
     width="32"
     height="32"
     x="-128"
     y="32"
     ry="0"
     transform="scale(-1,1)"
     id="rect58" />
  <rect
     style="fill:#60a036;stroke-width:16"
     width="32"
     height="32"
     x="-64"
     y="64"
     ry="0"
     transform="scale(-1,1)"
     id="rect60" />
  <rect
     style="fill:#583c28;stroke-width:16"
     width="32"
     height="32"
     x="192"
     y="-192"
     ry="0"
     transform="scale(1,-1)"
     id="rect62" />
  <rect
     style="fill:#785439;stroke-width:16"
     width="32"
     height="32"
     x="192"
     y="224"
     ry="0"
     id="rect64" />
  <rect
     style="fill:#785439;stroke-width:16"
     width="32"
     height="32"
     x="96"
     y="224"
     ry="0"
     id="rect66" />
  <rect
     style="fill:#956b49;stroke-width:16"
     width="32"
     height="32"
     x="128"
     y="224"
     ry="0"
     id="rect68" />
  <rect
     style="fill:#956b49;stroke-width:16"
     width="32"
     height="32"
     x="64"
     y="-256"
     ry="0"
     transform="scale(1,-1)"
     id="rect70" />
  <rect
     style="fill:#785439;stroke-width:16"
     width="32"
     height="32"
     x="-192"
     y="-256"
     ry="0"
     transform="scale(-1)"
     id="rect72" />
  <rect
     style="fill:#583c28;stroke-width:16"
     width="32"
     height="32"
     x="64"
     y="192"
     ry="0"
     id="rect74" />
  <rect
     style="fill:#6b6b6b;stroke-width:16"
     width="32"
     height="32"
     x="96"
     y="192"
     ry="0"
     id="rect76" />
  <rect
     style="fill:#785439;stroke-width:16"
     width="32"
     height="32"
     x="160"
     y="192"
     ry="0"
     id="rect78" />
  <rect
     style="fill:#583c28;stroke-width:16"
     width="32"
     height="32"
     x="128"
     y="192"
     ry="0"
     id="rect80" />
  <rect
     style="fill:#583c28;stroke-width:16"
     width="32"
     height="32"
     x="-224"
     y="192"
     ry="0"
     transform="scale(-1,1)"
     id="rect82" />
  <rect
     style="fill:#6b6b6b;stroke-width:16"
     width="32"
     height="32"
     x="-64"
     y="-224"
     ry="0"
     transform="scale(-1)"
     id="rect84" />
  <rect
     style="fill:#b8845b;stroke-width:16"
     width="32"
     height="32"
     x="32"
     y="-256"
     ry="0"
     transform="scale(1,-1)"
     id="rect86" />
  <rect
     style="fill:#b8845b;stroke-width:16"
     width="32"
     height="32"
     x="-256"
     y="128"
     ry="0"
     transform="scale(-1,1)"
     id="rect88" />
  <rect
     style="fill:#956b49;stroke-width:16"
     width="32"
     height="32"
     x="-256"
     y="96"
     ry="0"
     transform="scale(-1,1)"
     id="rect90" />
  <rect
     style="fill:#9bca6b;stroke-width:16"
     width="32"
     height="32"
     x="224"
     y="64"
     ry="0"
     id="rect92" />
  <rect
     style="fill:#785439;stroke-width:16"
     width="32"
     height="32"
     x="224"
     y="-192"
     ry="0"
     transform="scale(1,-1)"
     id="rect94" />
  <rect
     style="fill:#72b248;stroke-width:16"
     width="32"
     height="32"
     x="224"
     y="32"
     ry="0"
     id="rect96" />
  <path
     style="fill:#956b49;stroke-width:16"
     d="m 224,224 h 32 c 0,32 -32,32 -32,32 z"
     id="path98" />
  <rect
     style="fill:#583c28;stroke-width:16"
     width="32"
     height="32"
     x="224"
     y="192"
     ry="0"
     id="rect100" />
  <rect
     style="fill:#72b248;stroke-width:16"
     width="32"
     height="32"
     x="-224"
     y="0"
     ry="0"
     transform="scale(-1,1)"
     id="rect102" />
  <rect
     style="fill:#60a036;stroke-width:16"
     width="32"
     height="32"
     x="160"
     y="0"
     ry="0"
     id="rect104" />
  <rect
     style="fill:#72b248;stroke-width:16"
     width="32"
     height="32"
     x="32"
     y="0"
     ry="0"
     id="rect106" />
  <rect
     style="fill:#56962c;stroke-width:16"
     width="32"
     height="32"
     x="64"
     y="0"
     ry="0"
     id="rect108" />
  <path
     style="fill:#60a036;stroke-width:16"
     d="M 32,0 C 32,0 0,0 0,32 h 32 z"
     id="path110" />
  <rect
     style="fill:#56962c;stroke-width:16"
     width="32"
     height="32"
     x="128"
     y="0"
     ry="0"
     id="rect112" />
  <rect
     style="fill:#72b248;stroke-width:16"
     width="32"
     height="32"
     x="96"
     y="0"
     ry="0"
     id="rect114" />
  <path
     style="fill:#9bca6b;stroke-width:16"
     d="m 224,0 c 32,0 32,32 32,32 h -32 z"
     id="path116" />
  <rect
     style="fill:#b8845b;stroke-width:16"
     width="32"
     height="32"
     x="-32"
     y="-96"
     ry="0"
     transform="scale(-1)"
     id="rect118" />
  <rect
     style="fill:#b8845b;stroke-width:16"
     width="32"
     height="32"
     x="0"
     y="-224"
     ry="0"
     transform="scale(1,-1)"
     id="rect120" />
  <rect
     style="fill:#785439;stroke-width:16"
     width="32"
     height="32"
     x="0"
     y="160"
     ry="0"
     id="rect122" />
  <rect
     style="fill:#956b49;stroke-width:16"
     width="32"
     height="32"
     x="0"
     y="128"
     ry="0"
     id="rect124" />
  <path
     style="fill:#785439;stroke-width:16"
     d="M 32,256 C 0,256 0,224 0,224 h 32 z"
     id="path126" />
  <rect
     style="fill:#583c28;stroke-width:16"
     width="32"
     height="32"
     x="0"
     y="96"
     ry="0"
     id="rect128" />
</svg>
